<svg width="5638" height="1456" viewBox="0 0 5638 1456" fill="none" xmlns="http://www.w3.org/2000/svg">
<path d="M296.686 391.638L361.638 326.686H1035.07L1101.53 392.308V1059.8L1033.58 1128.81H363.136L296.686 1060.47V391.638Z" stroke="#8583FF" stroke-width="363.371"/>
<rect x="363" y="392" width="672.577" height="672.577" rx="83.0212" fill="#080808"/>
<path d="M731 864.011L1065 688L1065 937.558L1065 1145L731 864.011Z" fill="#8583FF"/>
<circle cx="579.5" cy="597.5" r="104.5" fill="#8583FF"/>
<path d="M4807.21 1097.03V354.956L4871.56 265H5337.76L5403.21 355.351V1096.64L5336.76 1191H4872.56L4807.21 1097.03Z" stroke="#8583FF" stroke-width="240" stroke-linejoin="round"/>
<path d="M2959.54 145.051H2358.8C2337.24 145.051 2332.19 162.382 2332.35 171.047C2333.02 534.717 2333.95 1266.36 2332.35 1283.56C2330.76 1300.76 2343 1306.72 2349.32 1307.56C2546.74 1307.89 2945.67 1308.36 2962.03 1307.56C2978.4 1306.76 2982.82 1290.56 2982.99 1282.56C2983.16 1228.89 2983.39 1116.96 2982.99 1098.56C2982.59 1080.16 2970.18 1074.56 2964.03 1074.06H2623.74V830.054H2931.1C2946.27 830.054 2951.39 819.053 2952.06 813.553C2952.39 762.886 2952.85 657.752 2952.06 642.552C2951.26 627.352 2942.08 623.885 2937.59 624.052H2623.74V378.549C2731.18 379.382 2949.86 380.549 2965.03 378.549C2980.2 376.549 2982.99 361.382 2982.49 354.049C2982.99 297.216 2983.69 179.551 2982.49 163.551C2981.29 147.551 2966.69 144.551 2959.54 145.051Z" fill="#8583FF" stroke="#8583FF"/>
<path d="M1468.21 1277.99V178.014C1468.21 159.781 1482.97 145 1501.17 145H1984.15C1992.72 145 2000.96 148.347 2007.11 154.331L2212.73 354.369C2219.12 360.586 2222.72 369.129 2222.72 378.053V629.915C2222.72 639.038 2218.95 647.755 2212.31 653.996L2059.75 797.325C2047.39 808.938 2045.83 828.05 2056.15 841.514L2126.51 933.288C2128.06 935.315 2129.38 937.517 2130.42 939.848L2229.31 1159.98C2231.22 1164.24 2232.21 1168.85 2232.21 1173.52V1277.99C2232.21 1296.22 2217.46 1311 2199.25 1311H1986.8C1972.87 1311 1960.44 1302.22 1955.76 1289.07L1819.56 906.248C1814.89 893.098 1802.46 884.317 1788.52 884.317H1782.8C1764.6 884.317 1749.84 899.098 1749.84 917.331V1277.99C1749.84 1296.22 1735.09 1311 1716.89 1311H1501.17C1482.97 1311 1468.21 1296.22 1468.21 1277.99Z" fill="#8583FF"/>
<path d="M1727.87 476.142C1727.87 426.415 1768.11 386.103 1817.75 386.103H1874.68C1924.32 386.103 1964.56 426.415 1964.56 476.142V574.184C1964.56 623.911 1924.32 664.223 1874.68 664.223H1817.75C1768.11 664.223 1727.87 623.911 1727.87 574.184V476.142Z" fill="#080808"/>
<path d="M3823.21 1277.99V178.014C3823.21 159.781 3837.97 145 3856.17 145H4339.15C4347.72 145 4355.96 148.347 4362.11 154.331L4567.73 354.369C4574.12 360.586 4577.72 369.129 4577.72 378.053V629.915C4577.72 639.038 4573.95 647.755 4567.31 653.996L4414.75 797.325C4402.39 808.938 4400.83 828.05 4411.15 841.514L4481.51 933.288C4483.06 935.315 4484.38 937.517 4485.42 939.848L4584.31 1159.98C4586.22 1164.24 4587.21 1168.85 4587.21 1173.52V1277.99C4587.21 1296.22 4572.46 1311 4554.25 1311H4341.8C4327.87 1311 4315.44 1302.22 4310.76 1289.07L4174.56 906.248C4169.89 893.098 4157.46 884.317 4143.52 884.317H4137.8C4119.6 884.317 4104.84 899.098 4104.84 917.331V1277.99C4104.84 1296.22 4090.09 1311 4071.89 1311H3856.17C3837.97 1311 3823.21 1296.22 3823.21 1277.99Z" fill="#8583FF"/>
<path d="M4082.87 476.142C4082.87 426.415 4123.11 386.103 4172.75 386.103H4229.68C4279.32 386.103 4319.56 426.415 4319.56 476.142V574.184C4319.56 623.911 4279.32 664.223 4229.68 664.223H4172.75C4123.11 664.223 4082.87 623.911 4082.87 574.184V476.142Z" fill="#080808"/>
<path d="M3722.55 163.025C3721.35 147.823 3705.73 144.69 3698.06 145.023H3108.42C3088.03 145.023 3083.27 161.691 3083.43 170.025C3083.27 222.53 3083.03 332.738 3083.43 353.54C3083.83 374.342 3097.26 379.876 3103.92 380.042H3258.83C3259.49 672.232 3260.43 1262.11 3258.83 1284.11C3257.23 1306.12 3271.82 1309.95 3279.31 1309.12C3357.93 1309.78 3518.57 1310.72 3532.16 1309.12C3545.75 1307.52 3548.15 1292.78 3547.65 1285.61V377.542C3592.46 377.375 3686.17 377.142 3702.56 377.542C3718.95 377.942 3722.72 366.374 3722.55 360.541C3723.05 301.036 3723.75 178.226 3722.55 163.025Z" fill="#8583FF"/>
<path d="M3107.42 145.023H3108.42M3108.42 145.023H3698.06C3705.73 144.69 3721.35 147.823 3722.55 163.025C3723.75 178.226 3723.05 301.036 3722.55 360.541C3722.72 366.374 3718.95 377.942 3702.56 377.542C3686.17 377.142 3592.46 377.375 3547.65 377.542V1285.61C3548.15 1292.78 3545.75 1307.52 3532.16 1309.12C3518.57 1310.72 3357.93 1309.78 3279.31 1309.12C3271.82 1309.95 3257.23 1306.12 3258.83 1284.11C3260.43 1262.11 3259.49 672.232 3258.83 380.042H3103.92C3097.26 379.876 3083.83 374.342 3083.43 353.54C3083.03 332.738 3083.27 222.53 3083.43 170.025C3083.27 161.691 3088.03 145.023 3108.42 145.023Z" stroke="#8583FF"/>
</svg>
